<svg width="41" height="56" viewBox="0 0 41 56" fill="none" xmlns="http://www.w3.org/2000/svg">
<path d="M27.8376 46.0032C27.1251 47.3135 26.2827 49.9326 25.4004 50.9692C24.9268 51.5244 23.8938 52.0593 23.1696 52.1389C21.7254 52.2991 18.3575 52.2864 16.9017 52.1364C14.0191 51.8397 13.3748 48.084 12.1096 45.8769C10.8577 43.6943 8.92489 42.4263 6.39192 42.3754C7.44989 44.6851 8.48205 47.0245 9.60412 49.3029C11.1832 52.5093 12.3077 55.6039 16.4031 55.8972C18.4091 56.0404 23.8555 56.1294 25.5635 55.4513C27.2067 54.7995 28.2213 53.651 29.0537 52.1211C30.7626 48.9808 32.0653 45.5683 33.6768 42.3746C31.1863 42.3932 29.0254 43.8138 27.8368 46.0015L27.8376 46.0032ZM39.7849 17.0712C39.3487 14.3691 38.3224 11.7958 36.8924 9.49454C36.7991 8.90885 38.0535 8.08498 37.8038 6.8246C37.4584 5.08702 35.1477 4.77002 34.3552 6.33045C30.2466 1.77376 24.2508 -0.441862 18.191 0.0726304V7.76967L15.2411 8.65457L11.5444 2.08398C11.2423 1.86361 8.83332 3.54694 8.41463 3.82834L8.35803 4.00888L11.9931 10.5862L9.90378 12.7188L3.50186 8.96648C3.32207 8.98174 1.71556 11.9288 1.72055 12.1568C1.72804 12.5264 7.25178 15.4777 7.93684 15.9685L7.19185 18.9724H0.183958L0 19.1597V22.1636C0 22.2763 0.0649264 22.6476 0.183958 22.7264H7.25178V22.9764H5.22408C4.68053 22.9764 2.96331 23.4918 2.36399 23.6935C2.0302 23.8054 0.537724 24.3657 0.429513 24.5962C1.09875 28.2985 3.0041 31.6203 5.4688 34.3682L19.974 49.1325L33.5129 35.4489C38.4639 30.6616 40.9095 24.0368 39.7857 17.0712H39.7849ZM29.6089 7.03226C30.2324 7.51794 31.1372 8.3062 31.6683 8.87749C31.7682 8.98428 32.2018 9.53014 32.1877 9.62422C31.6358 10.2286 31.1913 11.4093 30.6603 11.956C30.5587 12.0602 30.547 12.1323 30.3623 12.0873C30.0693 11.4872 29.554 11.0329 29.2019 10.4506C28.4245 9.16482 27.9075 7.47556 27.9025 5.95581C27.9858 5.85749 29.4366 6.8975 29.6098 7.03226H29.6089ZM21.8785 3.95294L24.2017 4.34029C23.9129 8.49098 25.3937 12.4781 28.3803 15.2972L21.8785 25.2294V3.95294ZM17.9363 11.7619L18.1902 11.9V26.7313L11.3072 23.6647C9.59246 18.5266 12.8638 13.0426 17.9363 11.7619ZM22.318 41.4473L19.9774 43.7502L13.0286 36.6211L22.8616 40.5624C23.1313 40.7464 22.3488 41.2422 22.3189 41.4473H22.318ZM29.9444 33.6918C28.8498 34.8055 27.7461 35.9227 26.6065 36.9864C26.3476 37.228 26.3468 37.6492 25.8083 37.5679C24.836 37.4212 22.7717 36.4634 21.7595 36.0515C17.6475 34.3758 13.6187 31.933 8.97649 32.5543C7.37248 30.9557 5.75348 29.0376 5.03929 26.8576C10.2958 25.982 14.6775 29.5292 19.2141 31.5101C22.8399 33.0934 26.5383 33.9969 30.4813 32.99C30.5862 33.0883 30.0426 33.5918 29.9444 33.6918ZM35.1219 26.8254C31.7191 29.052 27.8959 30.3319 23.8455 29.2343L28.109 22.7442C30.6411 23.7096 33.1533 24.3216 35.891 24.1046L35.1227 26.8262L35.1219 26.8254ZM30.2357 19.4072L34.4168 12.8392C35.8269 14.9632 36.219 17.6942 36.3763 20.2175C34.3419 20.5455 32.0928 20.254 30.2357 19.4064V19.4072Z" fill="url(#paint0_linear_153_716)"/>
<defs>
<linearGradient id="paint0_linear_153_716" x1="-3.531" y1="33.5892" x2="135.902" y2="2.86023" gradientUnits="userSpaceOnUse">
<stop stop-color="#0C54A6"/>
<stop offset="1" stop-color="#28A789"/>
</linearGradient>
</defs>
</svg>
