<svg width="150" height="56" viewBox="0 0 150 56" fill="none" xmlns="http://www.w3.org/2000/svg">
<g clip-path="url(#clip0_1_17)">
<path d="M27.8376 46.0032C27.1251 47.3135 26.2827 49.9326 25.4004 50.9692C24.9268 51.5244 23.8938 52.0593 23.1696 52.1389C21.7254 52.2991 18.3575 52.2864 16.9017 52.1364C14.0191 51.8397 13.3748 48.084 12.1096 45.8769C10.8577 43.6943 8.92489 42.4263 6.39192 42.3754C7.44989 44.6851 8.48205 47.0245 9.60412 49.3029C11.1832 52.5093 12.3077 55.6039 16.4031 55.8972C18.4091 56.0404 23.8555 56.1294 25.5635 55.4513C27.2067 54.7995 28.2213 53.651 29.0537 52.1211C30.7626 48.9808 32.0653 45.5683 33.6768 42.3746C31.1863 42.3932 29.0254 43.8138 27.8368 46.0015L27.8376 46.0032ZM39.7849 17.0712C39.3487 14.3691 38.3224 11.7958 36.8924 9.49454C36.7991 8.90885 38.0535 8.08498 37.8038 6.8246C37.4584 5.08702 35.1477 4.77002 34.3552 6.33045C30.2466 1.77376 24.2508 -0.441862 18.191 0.0726304V7.76967L15.2411 8.65457L11.5444 2.08398C11.2423 1.86361 8.83332 3.54694 8.41463 3.82834L8.35803 4.00888L11.9931 10.5862L9.90378 12.7188L3.50186 8.96648C3.32207 8.98174 1.71556 11.9288 1.72055 12.1568C1.72804 12.5264 7.25178 15.4777 7.93684 15.9685L7.19185 18.9724H0.183958L0 19.1597V22.1636C0 22.2763 0.0649264 22.6476 0.183958 22.7264H7.25178V22.9764H5.22408C4.68053 22.9764 2.96331 23.4918 2.36399 23.6935C2.0302 23.8054 0.537724 24.3657 0.429513 24.5962C1.09875 28.2985 3.0041 31.6203 5.4688 34.3682L19.974 49.1325L33.5129 35.4489C38.4639 30.6616 40.9095 24.0368 39.7857 17.0712H39.7849ZM29.6089 7.03226C30.2324 7.51794 31.1372 8.3062 31.6683 8.87749C31.7682 8.98428 32.2018 9.53014 32.1877 9.62422C31.6358 10.2286 31.1913 11.4093 30.6603 11.956C30.5587 12.0602 30.547 12.1323 30.3623 12.0873C30.0693 11.4872 29.554 11.0329 29.2019 10.4506C28.4245 9.16482 27.9075 7.47556 27.9025 5.95581C27.9858 5.85749 29.4366 6.8975 29.6098 7.03226H29.6089ZM21.8785 3.95294L24.2017 4.34029C23.9129 8.49098 25.3937 12.4781 28.3803 15.2972L21.8785 25.2294V3.95294ZM17.9363 11.7619L18.1902 11.9V26.7313L11.3072 23.6647C9.59246 18.5266 12.8638 13.0426 17.9363 11.7619ZM22.318 41.4473L19.9774 43.7502L13.0286 36.6211L22.8616 40.5624C23.1313 40.7464 22.3488 41.2422 22.3189 41.4473H22.318ZM29.9444 33.6918C28.8498 34.8055 27.7461 35.9227 26.6065 36.9864C26.3476 37.228 26.3468 37.6492 25.8083 37.5679C24.836 37.4212 22.7717 36.4634 21.7595 36.0515C17.6475 34.3758 13.6187 31.933 8.97649 32.5543C7.37248 30.9557 5.75348 29.0376 5.03929 26.8576C10.2958 25.982 14.6775 29.5292 19.2141 31.5101C22.8399 33.0934 26.5383 33.9969 30.4813 32.99C30.5862 33.0883 30.0426 33.5918 29.9444 33.6918ZM35.1219 26.8254C31.7191 29.052 27.8959 30.3319 23.8455 29.2343L28.109 22.7442C30.6411 23.7096 33.1533 24.3216 35.891 24.1046L35.1227 26.8262L35.1219 26.8254ZM30.2357 19.4072L34.4168 12.8392C35.8269 14.9632 36.219 17.6942 36.3763 20.2175C34.3419 20.5455 32.0928 20.254 30.2357 19.4064V19.4072Z" fill="url(#paint0_linear_1_17)"/>
<path d="M50.9498 29.5414L47.0783 20.2873H43.8978L49.3865 33.2428H52.2949L57.802 20.2873H54.8761L50.9506 29.5414H50.9498ZM58.855 33.2428H61.7991V20.2873H58.855V33.2428ZM126.883 29.671H129.446C132.844 29.671 134.971 27.8758 134.971 24.9889C134.971 22.102 132.844 20.2881 129.446 20.2881H123.939V33.2437H126.883V29.6719V29.671ZM126.883 22.7309H129.282C131.081 22.7309 131.99 23.5641 131.99 24.9889C131.99 26.4137 131.081 27.2283 129.282 27.2283H126.883V22.7309ZM130.671 38.4496C130.657 38.6751 130.609 39.3201 130.552 39.5913C130.486 39.9041 130.682 40.2126 130.989 40.2796C131.029 40.2881 131.069 40.2923 131.109 40.2923C131.372 40.2923 131.608 40.1058 131.665 39.8338C131.75 39.4294 131.801 38.6132 131.807 38.5217C131.827 38.2021 131.588 37.9267 131.275 37.9072C130.957 37.8885 130.69 38.1301 130.671 38.4496ZM91.9508 22.7309H96.022V33.2428H98.9662V22.7309H103.037V20.2881H91.95V22.7309H91.9508ZM67.7424 27.8385H73.649V25.5068H67.7424V22.6936H74.4306V20.2873H64.8157V33.2428H74.667V30.8365H67.7424V27.8385ZM130.245 41.5798C129.995 42.5817 129.495 43.4666 128.899 44.2955C128.603 44.7066 127.034 46.8731 126.788 45.3686C126.716 44.927 126.901 44.4515 126.869 44.0005C126.845 43.6742 126.747 43.3487 126.567 43.0758C126.072 42.3223 125.256 42.4706 124.489 42.5605C124.293 42.5834 124.109 42.5918 123.937 42.6105C123.801 42.2375 123.517 41.979 122.978 42.0426C122.103 42.146 122.035 43.3191 122.754 43.709C122.784 43.7251 122.815 43.7403 122.847 43.753C122.761 44.1446 122.703 44.5447 122.592 44.9312C122.327 45.8559 121.955 46.7425 121.484 47.5783C121.37 47.7808 121.25 47.98 121.125 48.175C121.077 48.2504 120.954 48.3979 120.851 48.5344C120.851 48.5089 120.85 48.4835 120.849 48.4581C120.836 48.1987 120.843 47.9376 120.849 47.6783C120.873 46.5137 121.02 45.3643 121.267 44.2277C121.403 43.6022 120.56 43.1928 120.226 43.781C119.889 44.376 119.552 44.9702 119.215 45.5652C119.088 45.7881 118.962 46.011 118.835 46.234C118.772 46.3458 118.469 47.0502 118.332 47.0655C118.013 47.1019 118.217 46.5501 118.243 46.3484C118.276 46.0984 118.311 45.8492 118.344 45.5991C118.433 44.9329 118.523 44.2675 118.612 43.6013C118.698 42.9614 117.96 42.5876 117.572 43.1546C116.951 44.0607 116.123 44.7922 115.151 45.2847C115.109 45.3059 115.049 45.3364 114.977 45.3711C114.73 44.6863 114.097 44.126 113.35 44.176C112.752 44.2158 112.225 44.6702 112.106 45.2508C111.02 46.2297 109.975 47.702 110.994 49.1319C112.139 50.7381 114.028 49.3209 114.653 48.0029C114.855 47.5749 115.021 47.0943 115.085 46.6069C115.579 46.4043 116.051 46.128 116.444 45.8636C116.729 45.6703 116.998 45.4584 117.251 45.2321C117.192 45.6678 117.133 46.1034 117.078 46.5391C116.993 47.2163 117.042 48.0249 117.798 48.2741C118.606 48.5403 119.189 47.9029 119.565 47.2647C119.606 47.196 119.645 47.1256 119.686 47.057C119.567 48.6988 119.744 50.2796 120.955 49.9609C121.397 49.8447 121.674 49.4057 121.916 49.0497C122.286 48.5055 122.613 47.9326 122.895 47.3367C123.397 46.2747 123.771 45.1499 123.981 43.9904C123.993 43.9251 124.004 43.8565 124.013 43.7853C124.133 43.7666 124.25 43.748 124.362 43.7352C124.661 43.7005 125.02 43.5971 125.321 43.6268C125.681 43.6624 125.729 43.8776 125.738 44.2345C125.761 45.2304 125.414 46.4204 126.567 46.9256C127.789 47.4613 128.757 46.3467 129.435 45.4762C129.3 45.9907 129.156 46.5027 129.005 47.0104C128.791 47.7257 129.889 48.0317 130.103 47.3189C130.633 45.5432 131.075 43.7251 131.343 41.8883C131.447 41.1713 130.43 40.8373 130.245 41.5798ZM111.896 48.4242C111.398 47.7418 111.919 47.0044 112.493 46.4433C112.776 46.7188 113.171 46.8866 113.566 46.912C113.655 46.918 113.744 46.9163 113.835 46.912C113.519 47.8029 112.607 49.3981 111.897 48.4233L111.896 48.4242ZM113.322 45.6584C113.372 45.5559 113.377 45.4482 113.349 45.3465C113.396 45.3296 113.464 45.3304 113.553 45.3516C113.697 45.4211 113.804 45.5288 113.873 45.6746C113.89 45.7042 113.903 45.7356 113.915 45.7669C113.653 45.8186 113.428 45.8042 113.321 45.6584H113.322ZM149.987 32.8487C149.92 32.5359 149.617 32.3367 149.309 32.4054C146.186 33.0979 143.18 33.7938 140.86 34.3405C141.573 31.4129 142.108 29.4346 142.12 29.3922C142.204 29.0837 142.026 28.7641 141.723 28.6785C141.42 28.5929 141.106 28.7743 141.022 29.0828C141.009 29.1286 140.402 31.3764 139.617 34.6346C137.689 35.0923 136.47 35.3898 136.443 35.3966C136.137 35.4712 135.948 35.7839 136.022 36.0958C136.084 36.362 136.318 36.5408 136.575 36.5408C136.619 36.5408 136.664 36.5357 136.708 36.5247C136.733 36.5188 137.719 36.2781 139.316 35.8975C138.963 37.3952 138.588 39.0514 138.223 40.772C136.774 41.946 135.446 43.2564 134.278 44.7244C134.228 44.788 134.18 44.8524 134.13 44.916C133.967 44.7278 133.815 44.5286 133.692 44.3048C133.12 43.2623 133.284 41.9366 134.121 41.0975C134.484 40.7339 135.077 40.3398 135.609 40.3449C136.688 40.355 135.439 41.451 135.144 41.6502C134.538 42.0621 135.107 43.0673 135.719 42.6512C136.415 42.1782 137.161 41.579 137.168 40.6432C137.174 39.7329 136.503 39.1328 135.629 39.1777C133.799 39.2718 132.31 40.9543 132.216 42.7707C132.169 43.6971 132.462 44.6312 133.025 45.3584C133.154 45.5245 133.296 45.6813 133.439 45.8356C133.087 46.3264 132.75 46.8281 132.433 47.3435C131.995 48.0572 131.28 48.9844 131.464 49.8829C131.645 50.772 132.485 51.0305 133.277 50.8619C134.1 50.6864 134.84 50.1278 135.269 49.3964C135.749 48.5776 135.812 47.5401 135.473 46.6561C135.341 46.3111 135.139 46.0263 134.911 45.7627C135.794 44.621 136.777 43.5589 137.843 42.5927C137.55 44.0438 137.271 45.5178 137.026 46.9595C136.973 47.2748 137.18 47.5749 137.49 47.63C137.522 47.6359 137.556 47.6384 137.587 47.6384C137.86 47.6384 138.1 47.4393 138.148 47.157C138.471 45.2558 138.853 43.2987 139.25 41.4103C139.266 41.3967 139.283 41.3832 139.3 41.3704C139.594 41.1433 139.59 40.7703 139.439 40.5195C139.816 38.7683 140.2 37.096 140.555 35.6034C142.936 35.0406 146.174 34.2879 149.55 33.5395C149.857 33.4717 150.052 33.1623 149.985 32.8495L149.987 32.8487ZM134.544 48.0402C134.488 48.57 134.204 49.0573 133.788 49.3786C133.529 49.5794 132.658 50.0456 132.591 49.5362C132.541 49.1455 133.107 48.4437 133.301 48.1224C133.574 47.669 133.86 47.2248 134.16 46.79C134.175 46.7697 134.189 46.7502 134.203 46.7298C134.448 47.0977 134.601 47.5122 134.544 48.0402ZM111.643 35.4627C114.221 34.7609 117.282 33.9701 120.214 33.2428H120.922V20.2873H117.978V32.6114C117.349 32.7707 116.619 32.9572 115.832 33.1606L113.035 29.0794C114.689 28.3573 115.652 26.9325 115.652 24.9889C115.652 22.0833 113.526 20.2881 110.127 20.2881H104.62V33.2437H107.564V29.6346H110.273L112.726 33.2437H115.512C114.658 33.4649 113.748 33.7031 112.835 33.9455C105.242 35.9653 104.854 36.3349 104.645 36.5332C104.039 37.1096 104.004 37.6207 104.081 37.9487C104.259 38.7048 105.124 38.9938 105.296 39.0438C105.348 39.059 105.401 39.0667 105.453 39.0667C105.7 39.0667 105.928 38.9014 106 38.6471C106.086 38.3394 105.912 38.0182 105.609 37.93C105.464 37.8877 105.241 37.7614 105.192 37.6834C105.201 37.6537 105.241 37.5571 105.408 37.3944C105.789 37.1392 107.944 36.4823 110.862 35.678C110.834 35.7288 110.81 35.7839 110.798 35.845L107.13 53.9853C107.067 54.2989 107.265 54.6057 107.573 54.6701C107.611 54.6786 107.65 54.682 107.689 54.682C107.953 54.682 108.191 54.493 108.246 54.2192L111.913 36.0789C111.963 35.8297 111.847 35.5864 111.643 35.4644V35.4627ZM109.963 27.2461H107.564V22.7301H109.963C111.763 22.7301 112.671 23.5632 112.671 24.9881C112.671 26.4129 111.762 27.2461 109.963 27.2461ZM75.576 22.7309H79.6472V33.2428H82.5914V22.7309H86.6626V20.2881H75.5752V22.7309H75.576Z" fill="url(#paint1_linear_1_17)"/>
</g>
<defs>
<linearGradient id="paint0_linear_1_17" x1="-3.531" y1="33.5892" x2="135.902" y2="2.86023" gradientUnits="userSpaceOnUse">
<stop stop-color="#0C54A6"/>
<stop offset="1" stop-color="#28A789"/>
</linearGradient>
<linearGradient id="paint1_linear_1_17" x1="1.3027" y1="55.5211" x2="140.736" y2="24.7913" gradientUnits="userSpaceOnUse">
<stop stop-color="#0C54A6"/>
<stop offset="1" stop-color="#28A789"/>
</linearGradient>
<clipPath id="clip0_1_17">
<rect width="150" height="56" fill="white"/>
</clipPath>
</defs>
</svg>
